<?xml version="1.0" encoding="iso-8859-1"?>
<!-- Generator: Adobe Illustrator 16.0.0, SVG Export Plug-In . SVG Version: 6.00 Build 0)  -->
<!DOCTYPE svg PUBLIC "-//W3C//DTD SVG 1.1//EN" "http://www.w3.org/Graphics/SVG/1.1/DTD/svg11.dtd">
<svg version="1.1" id="Capa_1" xmlns="http://www.w3.org/2000/svg" xmlns:xlink="http://www.w3.org/1999/xlink" x="0px" y="0px"
	 width="48.937px" height="48.937px" viewBox="0 0 48.937 48.937" style="enable-background:new 0 0 48.937 48.937;"
	 xml:space="preserve">
<g>
	<g>
		<ellipse cx="24.521" cy="34.999" rx="2.5" ry="1"/>
		<circle cx="17.729" cy="28.867" r="2.25"/>
		<circle cx="31.313" cy="28.867" r="2.25"/>
		<path d="M44.645,24.421c1.249-1.011,2.108-2.938,1.75-6.517c0,0-0.832-11.498-8.667-10.332c0,0-2.441-7.721-17.783-4.875
			c-0.863-1.02-2.41-2.186-5.142-2.697c0,0,0.833,1.722,0.956,3.589C13.607,3.734,0.43,5.256,2.728,20.572
			c0,0,0.214,2.983,1.667,4.493v3.217c-0.857,1.123-1.375,2.545-1.375,4.094c0,2.969,1.885,5.484,4.463,6.291
			c3.261,6.242,9.805,10.271,17.068,10.271c7.269,0,13.821-4.041,17.08-10.295c2.54-0.832,4.389-3.327,4.389-6.271
			c0-1.549-0.517-2.975-1.375-4.098L44.645,24.421L44.645,24.421z M39.78,34.937c-0.29,0-0.564-0.065-0.818-0.182
			c-2.039,5.918-7.712,10.182-14.408,10.182c-6.703,0-12.383-4.272-14.415-10.2c-0.269,0.129-0.563,0.2-0.874,0.2
			c-1.244,0-2.242-1.145-2.242-2.562c0-1.414,0.998-2.563,2.242-2.563c0.023,0,0.045,0.008,0.069,0.008
			c0.004-0.582,0.046-1.266,0.117-1.985c1.521-0.433,3.223-2.115,4.326-4.48c0.33-0.708,0.575-1.417,0.745-2.103
			c0.479,1.038,1.443,2.343,3.376,2.987c0,0-0.167-4.666,1.833-5.666c0,0,2.166,2.5,1.833,4c0,0,5.131-1.72,6.224-4.395
			c-0.255,0.693-0.793,2.589,0.275,4.061c0,0,1.5-3.168,2.832-3.5c0,0,1.777,3.459,4.699,5.267c1.112,2.053,2.668,3.484,4.063,3.848
			c0.067,0.713,0.108,1.387,0.112,1.961c0.005,0,0.007-0.002,0.009-0.002c1.243,0,2.24,1.148,2.24,2.564
			C42.02,33.79,41.024,34.937,39.78,34.937z"/>
	</g>
</g>
<g>
</g>
<g>
</g>
<g>
</g>
<g>
</g>
<g>
</g>
<g>
</g>
<g>
</g>
<g>
</g>
<g>
</g>
<g>
</g>
<g>
</g>
<g>
</g>
<g>
</g>
<g>
</g>
<g>
</g>
</svg>
